# This file uses centimeters as units for non-parametric coordinates.

mtllib techo.mtl
g default
v -119.545143 24.687079 -51.468361
v -75.491188 24.687079 -51.468361
v -119.545143 25.687079 -51.468361
v -75.491188 25.687079 -51.468361
v -119.545143 25.687079 -68.050201
v -75.491188 25.687079 -68.050201
v -119.545143 24.687079 -68.050201
v -75.491188 24.687079 -68.050201
v -211.987579 -11.227469 25.406702
v -120.338814 -11.227469 25.406702
v -211.987579 -10.227469 25.406702
v -120.338814 -10.227469 25.406702
v -211.987579 -10.227469 -68.540161
v -120.338814 -10.227469 -68.540161
v -211.987579 -11.227469 -68.540161
v -120.338814 -11.227469 -68.540161
vt -13.105209 4.739963
vt -13.105209 0.587621
vt -12.854798 0.587621
vt -12.854798 4.739963
vt -13.624979 4.739963
vt -13.624979 0.587621
vt -13.374566 0.587621
vt -13.374566 4.739963
vt -1.143190 24.113342
vt -1.143190 0.587621
vt -0.892774 0.587621
vt -0.892774 24.113342
vt -1.662956 24.113333
vt -1.662956 0.587621
vt -1.412541 0.587621
vt -1.412541 24.113333
vt -7.643965 11.619401
vt -7.643965 0.587621
vt -3.491623 0.587621
vt -3.491623 11.619401
vt -12.585443 11.619401
vt -12.585443 0.587621
vt -8.433099 0.587621
vt -8.433099 11.619401
vt -21.400909 -23.113337
vt 1.549326 -23.113337
vt 1.549326 0.412381
vt -21.400909 0.412381
vt -0.623414 0.587621
vt 22.326820 0.587621
vt 22.326820 24.113333
vt -0.623414 24.113333
vt -3.222268 11.619401
vt -3.222268 0.587621
vt -2.971853 0.587621
vt -2.971853 11.619401
vt -8.163744 11.619406
vt -8.163744 0.587623
vt -7.913321 0.587623
vt -7.913321 11.619406
vt -2.182728 23.537859
vt -2.182728 0.587621
vt -1.932314 0.587621
vt -1.932314 23.537859
vt -2.702498 23.537865
vt -2.702498 0.587623
vt -2.452087 0.587623
vt -2.452087 23.537865
vn 0.000000 0.000000 1.000000
vn 0.000000 0.000000 1.000000
vn 0.000000 0.000000 1.000000
vn 0.000000 0.000000 1.000000
vn 0.000000 1.000000 0.000000
vn 0.000000 1.000000 0.000000
vn 0.000000 1.000000 0.000000
vn 0.000000 1.000000 0.000000
vn 0.000000 0.000000 -1.000000
vn 0.000000 0.000000 -1.000000
vn 0.000000 0.000000 -1.000000
vn 0.000000 0.000000 -1.000000
vn 0.000000 -1.000000 0.000000
vn 0.000000 -1.000000 0.000000
vn 0.000000 -1.000000 0.000000
vn 0.000000 -1.000000 0.000000
vn 1.000000 0.000000 0.000000
vn 1.000000 0.000000 0.000000
vn 1.000000 0.000000 0.000000
vn 1.000000 0.000000 0.000000
vn -1.000000 0.000000 0.000000
vn -1.000000 0.000000 0.000000
vn -1.000000 0.000000 0.000000
vn -1.000000 0.000000 0.000000
vn 0.000000 0.000000 1.000000
vn 0.000000 0.000000 1.000000
vn 0.000000 0.000000 1.000000
vn 0.000000 0.000000 1.000000
vn 0.000000 1.000000 0.000000
vn 0.000000 1.000000 0.000000
vn 0.000000 1.000000 0.000000
vn 0.000000 1.000000 0.000000
vn 0.000000 0.000000 -1.000000
vn 0.000000 0.000000 -1.000000
vn 0.000000 0.000000 -1.000000
vn 0.000000 0.000000 -1.000000
vn 0.000000 -1.000000 0.000000
vn 0.000000 -1.000000 0.000000
vn 0.000000 -1.000000 0.000000
vn 0.000000 -1.000000 0.000000
vn 1.000000 0.000000 0.000000
vn 1.000000 0.000000 0.000000
vn 1.000000 0.000000 0.000000
vn 1.000000 0.000000 0.000000
vn -1.000000 0.000000 0.000000
vn -1.000000 0.000000 0.000000
vn -1.000000 0.000000 0.000000
vn -1.000000 0.000000 0.000000
s off
g pasted__pCube43
usemtl lambert4SG
f 1/33/1 2/34/2 4/35/3 3/36/4
f 3/17/5 4/18/6 6/19/7 5/20/8
f 5/37/9 6/38/10 8/39/11 7/40/12
f 7/21/13 8/22/14 2/23/15 1/24/16
f 2/1/17 8/2/18 6/3/19 4/4/20
f 7/5/21 1/6/22 3/7/23 5/8/24
f 9/41/25 10/42/26 12/43/27 11/44/28
f 11/25/29 12/26/30 14/27/31 13/28/32
f 13/45/33 14/46/34 16/47/35 15/48/36
f 15/29/37 16/30/38 10/31/39 9/32/40
f 10/9/41 16/10/42 14/11/43 12/12/44
f 15/13/45 9/14/46 11/15/47 13/16/48
