# This file uses centimeters as units for non-parametric coordinates.

mtllib wall.mtl
g default
v -74.913002 -0.426018 10.321159
v -74.913002 -0.426018 -67.454483
v -74.913002 26.621384 10.321159
v -74.913002 26.621384 -67.454483
v -76.496773 26.621384 10.321159
v -76.496773 26.621384 -67.454483
v -76.496773 -0.426018 10.321159
v -76.496773 -0.426018 -67.454483
v -76.496773 -0.426018 10.321159
v -74.913002 -0.426018 10.321159
v -74.913002 26.621384 10.321159
v -76.496773 26.621384 10.321159
v -76.496780 -0.426017 10.321163
v -74.913002 -0.426017 10.321163
v -74.913002 26.621384 10.321163
v -76.496780 26.621384 10.321163
vt 0.715486 0.657807
vt 0.715486 0.556622
vt 0.750674 0.556622
vt 0.750674 0.657807
vt 0.754360 0.556622
vt 0.754360 0.657807
vt 0.752300 0.657807
vt 0.752300 0.556622
vt 0.791363 0.556622
vt 0.791363 0.657807
vt 0.756175 0.657807
vt 0.756175 0.556622
vt 0.792989 0.657807
vt 0.792989 0.556622
vt 0.795050 0.556622
vt 0.795050 0.657807
vt 0.613886 0.746816
vt 0.611825 0.746816
vt 0.611825 0.711627
vt 0.613886 0.711627
vt 0.615700 0.749492
vt 0.617761 0.749492
vt 0.617761 0.784680
vt 0.615700 0.784680
vt 0.708220 0.759796
vt 0.739384 0.759796
vt 0.739384 0.759796
vt 0.708220 0.759796
vt 0.739384 0.790960
vt 0.739384 0.790960
vt 0.708220 0.790960
vt 0.708220 0.790960
vt 0.649047 0.786043
vt 0.649047 0.783983
vt 0.649047 0.783983
vt 0.649047 0.786043
vt 0.619575 0.749492
vt 0.619575 0.784680
vt 0.619575 0.784680
vt 0.619575 0.749492
vt 0.647522 0.783983
vt 0.647522 0.786043
vt 0.647522 0.786043
vt 0.647522 0.783983
vt 0.621513 0.749492
vt 0.621513 0.784680
vt 0.621513 0.784680
vt 0.621513 0.749492
vn 1.000000 0.000000 0.000000
vn 1.000000 0.000000 0.000000
vn 1.000000 0.000000 0.000000
vn 1.000000 0.000000 0.000000
vn 0.000000 1.000000 0.000000
vn 0.000000 1.000000 0.000000
vn 0.000000 1.000000 0.000000
vn 0.000000 1.000000 0.000000
vn -1.000000 0.000000 0.000000
vn -1.000000 0.000000 0.000000
vn -1.000000 0.000000 0.000000
vn -1.000000 0.000000 0.000000
vn 0.000000 -1.000000 0.000000
vn 0.000000 -1.000000 0.000000
vn 0.000000 -1.000000 0.000000
vn 0.000000 -1.000000 0.000000
vn 0.000000 0.000000 -1.000000
vn 0.000000 0.000000 -1.000000
vn 0.000000 0.000000 -1.000000
vn 0.000000 0.000000 -1.000000
vn 0.000000 0.000000 1.000000
vn 0.000000 0.000000 1.000000
vn 0.000000 0.000000 1.000000
vn 0.000000 0.000000 1.000000
vn 0.000000 0.000000 0.000000
vn 0.000000 0.000000 0.000000
vn 0.000000 0.000000 0.000000
vn 0.000000 0.000000 0.000000
vn 0.000000 0.000000 0.000000
vn 0.000000 0.000000 0.000000
vn 0.000000 0.000000 0.000000
vn 0.000000 0.000000 0.000000
vn 0.000000 0.000000 0.000000
vn 0.000000 0.000000 0.000000
vn 0.000000 0.000000 0.000000
vn 0.000000 0.000000 0.000000
vn 0.000000 0.000000 0.000000
vn 0.000000 0.000000 0.000000
vn 0.000000 0.000000 0.000000
vn 0.000000 0.000000 0.000000
vn 0.000000 -0.971943 0.235216
vn 0.000000 -0.971943 0.235216
vn 0.000000 -0.971943 0.235216
vn 0.000000 -0.971943 0.235216
vn 1.000000 0.000000 0.000000
vn 1.000000 0.000000 0.000000
vn 1.000000 0.000000 0.000000
vn 1.000000 0.000000 0.000000
vn 0.000000 1.000000 0.000000
vn 0.000000 1.000000 0.000000
vn 0.000000 1.000000 0.000000
vn 0.000000 1.000000 0.000000
vn -0.405544 0.000000 -0.914076
vn -0.405544 0.000000 -0.914076
vn -0.405544 0.000000 -0.914076
vn -0.405544 0.000000 -0.914076
s off
g polySurface14 pasted__pCube37
usemtl phong15SG
f 1/1/1 2/2/2 4/3/3 3/4/4
f 3/5/5 4/6/6 6/7/7 5/8/8
f 5/9/9 6/10/10 8/11/11 7/12/12
f 7/13/13 8/14/14 2/15/15 1/16/16
f 2/17/17 8/18/18 6/19/19 4/20/20
f 13/21/21 14/22/22 15/23/23 16/24/24
f 7/25/25 1/26/26 10/27/27 9/28/28
f 1/26/29 3/29/30 11/30/31 10/27/32
f 3/29/33 5/31/34 12/32/35 11/30/36
f 5/31/37 7/25/38 9/28/39 12/32/40
f 9/33/41 10/34/42 14/35/43 13/36/44
f 10/37/45 11/38/46 15/39/47 14/40/48
f 11/41/49 12/42/50 16/43/51 15/44/52
f 12/45/53 9/46/54 13/47/55 16/48/56
