# This file uses centimeters as units for non-parametric coordinates.

mtllib vapor.mtl
g default
v 19.377622 23.508937 -0.839492
v 17.126224 24.479395 -0.839492
v 17.648951 16.520764 -0.009319
v 17.648950 16.520764 -3.748998
v 19.377622 23.508937 -2.918826
v 17.126224 24.479395 -2.918826
v 19.991939 19.069497 -0.390169
v 20.933519 17.270204 -0.254654
v 19.029809 16.220963 -0.113728
v 19.021503 16.194383 -3.647533
v 20.918379 17.221352 -3.509067
v 19.947980 18.927655 -3.383838
v 16.580728 23.572977 -3.060168
v 16.337279 17.448117 -3.748998
v 16.937606 17.023685 -0.009320
v 16.364188 23.213165 -0.642043
v 16.649555 17.632228 -3.704710
v 16.613258 23.627030 -0.706579
vt 0.269114 0.587181
vt 0.296854 0.572142
vt 0.224608 0.563212
vt 0.274499 0.536164
vt 0.283196 0.555437
vt 0.236031 0.580958
vt 0.291008 0.574254
vt 0.247551 0.597720
vt 0.334791 0.593895
vt 0.317059 0.561188
vt 0.344799 0.546148
vt 0.362531 0.578856
vt 0.385316 0.606576
vt 0.345492 0.628439
vt 0.398529 0.626633
vt 0.355152 0.650244
vt 0.377628 0.585083
vt 0.359896 0.552376
vt 0.480895 0.549444
vt 0.487306 0.569906
vt 0.474039 0.600108
vt 0.445562 0.588325
vt 0.276101 0.535295
vt 0.344586 0.435499
vt 0.362318 0.468206
vt 0.326108 0.528182
vt 0.321659 0.557637
vt 0.289402 0.552073
vt 0.329573 0.441185
vt 0.306322 0.585105
vt 0.269168 0.511925
vt 0.263132 0.515197
vt 0.218444 0.551842
vt 0.472326 0.539377
vt 0.377996 0.539135
vt 0.274631 0.512656
vt 0.372080 0.543463
vt 0.274470 0.601294
vn 0.395839 0.918320 0.000000
vn 0.395839 0.918320 0.000000
vn 0.395839 0.918320 0.000000
vn 0.395839 0.918320 0.000000
vn 0.991410 0.130221 -0.012232
vn 0.991410 0.130221 -0.012232
vn 0.965192 0.261031 -0.016372
vn 0.962827 0.269607 -0.016639
vn 0.187475 -0.982247 0.006665
vn 0.188689 -0.982014 0.006672
vn -0.221753 -0.975096 0.003817
vn -0.221753 -0.975096 0.003817
vn 0.915506 -0.402232 -0.007585
vn 0.920502 -0.390659 -0.007876
vn 0.054886 0.101996 -0.993270
vn 0.054886 0.101996 -0.993270
vn 0.054886 0.101996 -0.993270
vn 0.054886 0.101996 -0.993270
vn 0.054886 0.101996 -0.993270
vn 0.054886 0.101996 -0.993270
vn 0.054886 0.101996 -0.993270
vn 0.054886 0.101996 -0.993270
vn 0.054886 0.101996 -0.993270
vn -0.577293 -0.816537 0.000000
vn -0.577293 -0.816537 0.000000
vn -0.577293 -0.816537 0.000000
vn -0.577293 -0.816537 0.000000
vn 0.054516 0.101936 0.993296
vn 0.054516 0.101936 0.993296
vn 0.054516 0.101936 0.993296
vn 0.054516 0.101936 0.993296
vn 0.054516 0.101936 0.993296
vn 0.054516 0.101936 0.993296
vn 0.054516 0.101936 0.993296
vn 0.054516 0.101936 0.993296
vn 0.054516 0.101936 0.993296
vn -0.856806 0.515639 0.000000
vn -0.856806 0.515639 0.000000
vn -0.856806 0.515639 0.000000
vn -0.856806 0.515639 0.000000
s off
g pCube28
usemtl phong19SG
f 5/9/1 6/10/2 2/11/3 1/12/4
s 1
f 5/9/5 1/12/6 7/13/7 12/14/8
f 10/5/9 9/6/10 3/3/11 4/4/12
f 11/7/13 8/8/14 9/6/10 10/5/9
f 12/14/8 7/13/7 8/15/14 11/16/13
s off
f 4/23/15 14/31/16 17/36/17 13/29/18 6/24/19 5/25/20 12/26/21 11/27/22 10/28/23
f 3/3/24 15/33/25 14/32/26 4/4/27
f 1/17/28 2/18/29 18/37/30 16/35/31 15/34/32 3/19/33 9/20/34 8/21/35 7/22/36
f 2/1/37 6/2/38 13/30/39 18/38/40
