# This file uses centimeters as units for non-parametric coordinates.

mtllib wall_2.mtl
g default
v -76.496773 0.289921 -64.650596
v -74.913002 0.289921 -64.650596
v -74.913002 17.933226 -64.650596
v -76.496773 17.933226 -64.650596
v -74.913002 17.933226 -53.473640
v -76.496773 17.933226 -53.473640
v -74.913002 0.289921 -53.473640
v -76.496773 0.289921 -53.473640
v -76.496780 -0.426018 10.119583
v -74.913010 -0.426018 10.119583
v -74.913010 26.621384 10.119583
v -76.496780 26.621384 10.119583
v -74.913002 -0.426018 -67.656059
v -76.496773 -0.426018 -67.656059
v -76.496773 26.621384 -67.656059
v -74.913002 26.621384 -67.656059
vt 0.640721 0.622817
vt 0.727250 0.622817
vt 0.769860 0.637556
vt 0.637209 0.637556
vt 0.727250 0.568001
vt 0.769860 0.256116
vt 0.640721 0.568001
vt 0.637209 0.256116
vt 0.862677 0.325672
vt 0.862677 0.270856
vt 0.905287 0.256116
vt 0.905287 0.637556
vt 0.776147 0.270856
vt 0.772636 0.256116
vt 0.776147 0.325672
vt 0.772636 0.637556
vt 0.616197 0.637556
vt 0.616197 0.256116
vt 0.623965 0.256116
vt 0.623965 0.637556
vt 0.634506 0.256116
vt 0.634506 0.637556
vt 0.626738 0.637556
vt 0.626738 0.256116
vt 0.957715 0.256116
vt 0.957715 0.310932
vt 0.949948 0.310932
vt 0.949948 0.256116
vt 0.968186 0.256116
vt 0.968186 0.310932
vt 0.960419 0.310932
vt 0.960419 0.256116
vt 0.908063 0.256116
vt 0.915830 0.256116
vt 0.915830 0.388766
vt 0.908063 0.388766
vt 0.926301 0.388766
vt 0.918534 0.388766
vt 0.918534 0.256116
vt 0.926301 0.256116
vt 0.936773 0.256116
vt 0.936773 0.342645
vt 0.929005 0.342645
vt 0.929005 0.256116
vt 0.947244 0.256116
vt 0.947244 0.342645
vt 0.939476 0.342645
vt 0.939476 0.256116
vn 0.000000 0.000000 1.000000
vn 0.000000 0.000000 1.000000
vn 0.000000 0.000000 1.000000
vn 0.000000 0.000000 1.000000
vn 0.000000 0.000000 -1.000000
vn 0.000000 0.000000 -1.000000
vn 0.000000 0.000000 -1.000000
vn 0.000000 0.000000 -1.000000
vn 0.000000 -1.000000 0.000000
vn 0.000000 -1.000000 0.000000
vn 0.000000 -1.000000 0.000000
vn 0.000000 -1.000000 0.000000
vn 0.000000 1.000000 0.000000
vn 0.000000 1.000000 0.000000
vn 0.000000 1.000000 0.000000
vn 0.000000 1.000000 0.000000
vn 0.000000 0.000000 -1.000000
vn 0.000000 0.000000 -1.000000
vn 0.000000 0.000000 -1.000000
vn 0.000000 0.000000 -1.000000
vn 0.000000 -1.000000 0.000000
vn 0.000000 -1.000000 0.000000
vn 0.000000 -1.000000 0.000000
vn 0.000000 -1.000000 0.000000
vn 0.000000 0.000000 1.000000
vn 0.000000 0.000000 1.000000
vn 0.000000 0.000000 1.000000
vn 0.000000 0.000000 1.000000
vn 0.000000 1.000000 0.000000
vn 0.000000 1.000000 0.000000
vn 0.000000 1.000000 0.000000
vn 0.000000 1.000000 0.000000
vn -1.000000 0.000000 0.000000
vn -1.000000 0.000000 0.000000
vn -1.000000 0.000000 0.000000
vn -1.000000 0.000000 0.000000
vn -1.000000 -0.000001 -0.000000
vn -1.000000 -0.000001 -0.000000
vn -1.000000 -0.000001 -0.000000
vn -1.000000 -0.000001 -0.000000
vn -1.000000 0.000015 -0.000000
vn -1.000000 0.000015 -0.000000
vn -1.000000 0.000015 -0.000000
vn -1.000000 0.000015 -0.000000
vn 1.000000 0.000000 0.000000
vn 1.000000 0.000000 0.000000
vn 1.000000 0.000000 0.000000
vn 1.000000 0.000000 0.000000
vn 1.000000 0.000000 0.000000
vn 1.000000 0.000000 0.000000
vn 1.000000 0.000000 0.000000
vn 1.000000 0.000000 0.000000
vn 1.000000 0.000009 0.000000
vn 1.000000 0.000009 0.000000
vn 1.000000 0.000009 0.000000
vn 1.000000 0.000009 0.000000
vn 1.000000 0.000000 0.000000
vn 1.000000 0.000000 0.000000
vn 1.000000 0.000000 0.000000
vn 1.000000 0.000000 0.000000
vn -1.000000 0.000000 -0.000000
vn -1.000000 0.000000 -0.000000
vn -1.000000 0.000000 -0.000000
vn -1.000000 0.000000 -0.000000
s off
g polySurface14
usemtl phong15SG
f 9/33/1 10/34/2 11/35/3 12/36/4
f 13/37/5 14/38/6 15/39/7 16/40/8
f 9/17/9 14/18/10 13/19/11 10/20/12
f 11/21/13 16/22/14 15/23/15 12/24/16
f 5/41/17 7/42/18 8/43/19 6/44/20
f 3/25/21 5/26/22 6/27/23 4/28/24
f 2/45/25 3/46/26 4/47/27 1/48/28
f 7/29/29 2/30/30 1/31/31 8/32/32
f 1/1/33 4/2/34 15/3/35 14/4/36
f 4/2/37 6/5/38 12/6/39 15/3/40
f 8/7/41 1/1/42 14/4/43 9/8/44
f 5/9/45 3/10/46 16/11/47 11/12/48
f 3/10/49 2/13/50 13/14/51 16/11/52
f 2/13/53 7/15/54 10/16/55 13/14/56
f 7/15/57 5/9/58 11/12/59 10/16/60
f 6/5/61 8/7/62 9/8/63 12/6/64
