# This file uses centimeters as units for non-parametric coordinates.

mtllib puerta.mtl
g default
v 11.106479 12.502354 4.224551
v 11.408637 12.921147 5.232045
v 10.911052 12.919439 4.360092
v 11.014922 13.180822 5.505112
v 10.517333 13.176978 4.633163
v 10.477207 13.252954 5.878054
v 9.981742 13.246345 5.004632
v 9.901111 13.136647 6.277614
v 9.410301 13.128532 5.400964
v 9.396390 12.855322 6.627674
v 8.912717 12.849105 5.746072
v 8.800231 11.987943 7.041149
v 8.327016 11.987943 6.152295
v 8.479469 11.232117 7.263620
v 8.000434 11.218901 6.378803
v 7.775688 10.386940 7.751739
v 7.293245 10.369030 6.869284
v 6.890307 9.846960 8.365810
v 6.403496 9.825167 7.486385
v 5.910388 9.665027 9.045450
v 5.418148 9.640550 8.169790
v 5.572581 9.555051 9.279741
v 5.085284 9.540308 8.400653
v 5.352935 9.295280 9.432081
v 4.872087 9.290966 8.548521
v 5.264192 8.472073 9.493629
v 4.770185 8.450182 8.619195
v 5.264192 0.544997 9.493629
v 4.770185 0.544997 8.619195
v 11.635196 0.544997 5.074911
v 11.141195 0.544997 4.200473
v 11.635196 11.987943 5.074912
v 11.141195 11.987943 4.200474
v 11.602813 12.502970 5.097371
v -5.051625 -0.024863 15.431280
v -4.484980 -0.024863 16.255334
v -4.484980 15.188957 16.255334
v -5.051625 15.188957 15.431280
v 20.744792 -0.024863 -1.243206
v 20.178148 -0.024863 -2.067260
v 20.178148 15.188957 -2.067260
v 20.744792 15.188957 -1.243206
vt 0.836089 0.483079
vt 0.838433 0.477441
vt 0.836093 0.478195
vt 0.838423 0.482321
vt 0.765984 0.518289
vt 0.765984 0.420364
vt 0.851124 0.420364
vt 0.851124 0.518289
vt 0.769173 0.483214
vt 0.833210 0.483214
vt 0.839864 0.480792
vt 0.840253 0.478714
vt 0.839593 0.476496
vt 0.838030 0.474564
vt 0.833210 0.472291
vt 0.828907 0.471023
vt 0.824151 0.468279
vt 0.821107 0.464825
vt 0.820074 0.461001
vt 0.819513 0.459709
vt 0.818117 0.458881
vt 0.813412 0.458486
vt 0.769173 0.458486
vt 0.833210 0.478320
vt 0.765984 0.415752
vt 0.851124 0.415752
vt 0.769173 0.478320
vt 0.746631 0.461751
vt 0.742402 0.467970
vt 0.742328 0.463018
vt 0.746631 0.466725
vt 0.764545 0.420364
vt 0.764545 0.518289
vt 0.679405 0.518289
vt 0.679405 0.420364
vt 0.751485 0.464411
vt 0.753060 0.462452
vt 0.753711 0.460216
vt 0.753307 0.458129
vt 0.751854 0.456601
vt 0.749514 0.455847
vt 0.746631 0.455721
vt 0.682594 0.455721
vt 0.682594 0.480449
vt 0.726956 0.480449
vt 0.731563 0.480105
vt 0.733016 0.479253
vt 0.733632 0.477941
vt 0.734650 0.474138
vt 0.737672 0.470702
vt 0.737572 0.465763
vt 0.751451 0.459477
vt 0.679405 0.415753
vt 0.764545 0.415753
vt 0.682594 0.475556
vt 0.726833 0.475556
vt 0.731539 0.475160
vt 0.732934 0.474333
vt 0.619286 0.418537
vt 0.624166 0.415753
vt 0.625694 0.417956
vt 0.620815 0.420740
vt 0.627781 0.420965
vt 0.622893 0.423738
vt 0.630017 0.424189
vt 0.625111 0.426936
vt 0.631976 0.427013
vt 0.627043 0.429720
vt 0.638354 0.415753
vt 0.633416 0.418452
vt 0.641791 0.420707
vt 0.636869 0.423432
vt 0.645594 0.426191
vt 0.640694 0.428946
vt 0.646905 0.428082
vt 0.641985 0.430809
vt 0.653238 0.454170
vt 0.648344 0.451406
vt 0.673072 0.415753
vt 0.677966 0.418517
vt 0.715369 0.414816
vt 0.617444 0.273625
vt 0.622056 0.270454
vt 0.719981 0.411645
vt 0.721743 0.411645
vt 0.819669 0.270454
vt 0.824280 0.273625
vt 0.726355 0.414816
vn -0.834329 -0.280998 0.474274
vn -0.832487 -0.288051 0.473278
vn -0.589772 -0.733382 0.338112
vn -0.603939 -0.717974 0.346080
vn -0.232624 -0.962819 0.137352
vn -0.249953 -0.957022 0.147082
vn 0.040555 -0.999060 -0.015327
vn 0.026814 -0.999611 -0.007688
vn 0.265323 -0.953966 -0.139828
vn 0.252706 -0.958377 -0.132864
vn 0.584089 -0.748757 -0.313374
vn 0.570250 -0.762395 -0.305889
vn 0.678956 -0.637179 -0.364721
vn 0.678956 -0.637179 -0.364721
vn 0.785298 -0.456517 -0.418210
vn 0.785298 -0.456517 -0.418210
vn 0.697083 -0.615342 -0.368008
vn 0.702706 -0.606984 -0.371181
vn 0.515591 -0.814783 -0.265131
vn 0.526217 -0.805957 -0.271160
vn 0.271179 -0.954212 -0.126259
vn 0.285891 -0.948758 -0.134627
vn 0.145859 -0.987757 -0.055325
vn 0.145859 -0.987757 -0.055325
vn 0.229425 -0.967488 -0.106446
vn 0.229425 -0.967488 -0.106446
vn 0.432553 -0.873509 -0.223339
vn 0.412783 -0.885841 -0.211886
vn 0.830390 -0.320752 -0.455600
vn 0.826048 -0.335360 -0.452967
vn 0.867113 -0.137391 -0.478790
vn 0.867112 -0.137391 -0.478790
vn 0.870664 0.000000 -0.491878
vn 0.870664 0.000000 -0.491878
vn 0.870664 0.000000 -0.491878
vn 0.870664 0.000000 -0.491878
vn 0.000000 1.000000 -0.000000
vn 0.000000 1.000000 -0.000000
vn 0.000000 1.000000 -0.000000
vn 0.000000 1.000000 -0.000000
vn -0.870668 -0.000000 0.491872
vn -0.870668 -0.000000 0.491872
vn -0.870668 -0.000000 0.491872
vn -0.870668 -0.000000 0.491872
vn -0.867261 -0.078751 0.491586
vn -0.867261 -0.078751 0.491586
vn -0.823992 0.000000 0.566602
vn -0.823992 0.000000 0.566602
vn -0.823992 0.000000 0.566602
vn -0.823992 0.000000 0.566602
vn 0.823992 0.000000 -0.566602
vn 0.823992 0.000000 -0.566602
vn 0.823992 0.000000 -0.566602
vn 0.823992 0.000000 -0.566602
vn 0.000000 -1.000000 -0.000000
vn 0.000000 -1.000000 -0.000000
vn 0.000000 -1.000000 -0.000000
vn 0.000000 -1.000000 -0.000000
vn -0.569909 0.000000 -0.821708
vn -0.569909 0.000000 -0.821708
vn -0.569909 0.000000 -0.821708
vn -0.569909 0.000000 -0.821708
vn -0.569909 0.000000 -0.821708
vn -0.569909 0.000000 -0.821708
vn -0.569909 0.000000 -0.821708
vn -0.569909 0.000000 -0.821708
vn -0.569909 0.000000 -0.821708
vn -0.569909 0.000000 -0.821708
vn -0.569909 0.000000 -0.821708
vn -0.569909 0.000000 -0.821708
vn -0.569909 0.000000 -0.821708
vn -0.569909 0.000000 -0.821708
vn -0.569909 0.000000 -0.821708
vn -0.569909 0.000000 -0.821708
vn -0.569909 0.000000 -0.821708
vn -0.569909 0.000000 -0.821708
vn -0.569909 0.000000 -0.821708
vn -0.569909 0.000000 -0.821708
vn -0.569909 0.000000 -0.821708
vn 0.000000 1.000000 0.000000
vn 0.000000 1.000000 0.000000
vn 0.000000 1.000000 0.000000
vn 0.000000 1.000000 0.000000
vn 0.569909 0.000000 0.821708
vn 0.569909 0.000000 0.821708
vn 0.569909 0.000000 0.821708
vn 0.569909 0.000000 0.821708
vn 0.569909 0.000000 0.821708
vn 0.569909 0.000000 0.821708
vn 0.569909 0.000000 0.821708
vn 0.569909 0.000000 0.821708
vn 0.569909 0.000000 0.821708
vn 0.569909 0.000000 0.821708
vn 0.569909 0.000000 0.821708
vn 0.569909 0.000000 0.821708
vn 0.569909 0.000000 0.821708
vn 0.569909 0.000000 0.821708
vn 0.569909 0.000000 0.821708
vn 0.569909 0.000000 0.821708
vn 0.569909 0.000000 0.821708
vn 0.569909 0.000000 0.821708
vn 0.569909 0.000000 0.821708
vn 0.569909 0.000000 0.821708
vn 0.569909 0.000000 0.821708
s 1
g pCube39
usemtl phong26SG
f 1/1/1 34/3/2 2/2/3 3/4/4
f 3/59/4 2/60/3 4/61/5 5/62/6
f 5/62/6 4/61/5 6/63/7 7/64/8
f 7/64/8 6/63/7 8/65/9 9/66/10
f 9/66/10 8/65/9 10/67/11 11/68/12
f 11/52/12 10/36/11 12/31/13 13/28/14
s 2
f 13/28/15 12/31/16 14/29/17 15/30/18
f 15/30/18 14/29/17 16/50/19 17/51/20
f 17/70/20 16/69/19 18/71/21 19/72/22
f 19/72/22 18/71/21 20/73/23 21/74/24
s 3
f 21/74/25 20/73/26 22/75/27 23/76/28
f 23/58/28 22/47/27 24/46/29 25/57/30
f 25/57/30 24/46/29 26/45/31 27/56/32
s off
f 27/56/33 26/45/34 28/44/35 29/55/36
f 29/77/37 28/78/38 30/79/39 31/80/40
f 31/9/41 30/27/42 32/24/43 33/10/44
s 1
f 33/10/45 32/24/46 34/3/2 1/1/1
s off
f 35/6/47 36/25/48 37/26/49 38/7/50
f 39/35/51 40/53/52 41/54/53 42/32/54
f 35/81/55 40/82/56 39/83/57 36/84/58
f 40/5/59 35/6/60 38/7/61 41/8/62 31/9/63 33/10/64 1/1/65 3/4/66 5/11/67 7/12/68 9/13/69 11/14/70 13/15/71 15/16/72 17/17/73 19/18/74 21/19/75 23/20/76 25/21/77 27/22/78 29/23/79
f 37/85/80 42/86/81 41/87/82 38/88/83
f 42/32/84 37/33/85 36/34/86 39/35/87 14/29/88 12/31/89 10/36/90 8/37/91 6/38/92 4/39/93 2/40/94 34/41/95 32/42/96 30/43/97 28/44/98 26/45/99 24/46/100 22/47/101 20/48/102 18/49/103 16/50/104
