# This file uses centimeters as units for non-parametric coordinates.

mtllib altar.mtl
g default
v -3.172099 38.879702 13.745465
v -2.840789 38.879717 14.209643
v -3.172099 36.673535 13.745465
v -2.840789 36.673554 14.209643
v -3.172099 34.467368 13.745465
v -2.840789 34.467390 14.209643
v -3.172099 32.261204 13.745465
v -2.840789 32.261223 14.209643
v 13.650292 12.405738 2.438948
v 17.712506 38.837003 -0.460486
v 17.381195 38.833903 -0.924668
v 17.381191 29.159099 -0.924671
v 13.414453 12.405725 1.906633
v -3.172099 30.055039 13.745465
v -2.840789 30.055057 14.209643
v 6.815179 19.427833 6.616939
v -0.809292 12.405724 12.058988
v 7.111073 19.404240 7.106401
v 17.559899 29.043063 -0.351561
v 17.712501 29.169990 -0.460493
v 7.113966 19.401132 7.104323
v -0.475555 12.405738 12.521436
v 6.815179 19.427833 6.616939
vt 0.291844 0.320747
vt 0.291873 0.319512
vt 0.296848 0.319628
vt 0.296819 0.320863
vt 0.302759 0.319766
vt 0.302731 0.321001
vt 0.309717 0.319928
vt 0.309688 0.321163
vt 0.317736 0.320115
vt 0.317707 0.321350
vt 0.417377 0.340152
vt 0.387361 0.323159
vt 0.319525 0.406124
vt 0.319220 0.406127
vt 0.289957 0.405444
vt 0.418466 0.304581
vt 0.387390 0.321555
vt 0.391013 0.409425
vt 0.418466 0.304581
vt 0.414459 0.476443
vt 0.313729 0.491976
vt 0.305709 0.491789
vt 0.298752 0.491627
vt 0.292841 0.491489
vt 0.287866 0.491373
vt 0.414459 0.476443
vt 0.413369 0.512013
vt 0.387415 0.579268
vt 0.319235 0.407363
vt 0.417352 0.340036
vt 0.289935 0.406680
vt 0.287837 0.492608
vt 0.285950 0.577305
vn -0.813937 0.000000 0.580953
vn -0.813937 0.000000 0.580953
vn -0.813937 0.000000 0.580953
vn -0.813937 0.000000 0.580953
vn -0.813937 0.000000 0.580953
vn -0.813937 0.000000 0.580953
vn -0.813937 0.000000 0.580953
vn -0.813937 0.000000 0.580953
vn -0.813937 0.000000 0.580953
vn -0.813937 0.000000 0.580953
vn 0.580955 0.000000 0.813936
vn 0.580955 0.000000 0.813936
vn 0.580955 0.000000 0.813936
vn 0.580955 0.000000 0.813936
vn 0.580955 0.000000 0.813936
vn 0.580955 0.000000 0.813936
vn 0.580955 0.000000 0.813936
vn 0.580955 0.000000 0.813936
vn 0.580955 0.000000 0.813936
vn -0.580955 0.000000 -0.813935
vn -0.580955 0.000000 -0.813935
vn -0.580955 0.000000 -0.813935
vn -0.580955 0.000000 -0.813935
vn -0.580955 0.000000 -0.813935
vn -0.580955 0.000000 -0.813935
vn -0.580955 0.000000 -0.813935
vn -0.580955 0.000000 -0.813935
vn 0.813938 -0.000000 -0.580952
vn 0.813938 -0.000000 -0.580952
vn 0.813938 -0.000000 -0.580952
vn 0.813938 -0.000000 -0.580952
vn -0.488754 0.800029 0.347956
vn -0.488754 0.800029 0.347956
vn -0.488754 0.800029 0.347956
vn -0.488754 0.800029 0.347956
vn 0.593076 0.750602 -0.291302
vn 0.593076 0.750602 -0.291302
vn 0.593076 0.750602 -0.291302
vn 0.593076 0.750602 -0.291302
vn -0.556888 -0.754348 0.347614
vn -0.556888 -0.754348 0.347614
vn -0.556888 -0.754348 0.347614
vn -0.556888 -0.754348 0.347614
vn 0.502041 -0.799688 -0.329323
vn 0.502041 -0.799688 -0.329323
vn 0.502041 -0.799688 -0.329323
vn 0.502041 -0.799688 -0.329323
vn -0.000160 0.999995 -0.003241
vn -0.000160 0.999995 -0.003241
vn -0.000160 0.999995 -0.003241
vn -0.000160 0.999995 -0.003241
s 1
g polySurface12 polySurface11 polySurface8 pasted__pCube12 group81
usemtl phong12SG
f 2/1/1 1/2/2 3/3/3 4/4/4
f 4/4/4 3/3/3 5/5/5 6/6/6
f 6/6/6 5/5/5 7/7/7 8/8/8
f 8/8/8 7/7/7 14/9/9 15/10/10
s off
f 18/30/11 19/13/12 20/14/13 10/15/14 2/1/15 4/4/16 6/6/17 8/8/18 15/10/19
f 12/29/20 23/20/21 14/21/22 7/22/23 5/23/24 3/24/25 1/25/26 11/31/27
f 20/14/28 12/29/29 11/31/30 10/15/31
f 16/19/32 17/17/33 22/12/34 21/11/35
f 21/27/36 9/28/37 13/18/38 16/26/39
f 14/9/40 23/16/41 18/30/42 15/10/43
f 23/20/44 12/29/45 19/13/46 18/30/47
f 2/32/48 10/33/49 11/31/50 1/25/51
g default
v 17.716673 12.405737 -0.426584
v 17.385370 12.405725 -0.890757
v 13.654467 12.405737 2.472871
v 13.418627 12.405725 1.940550
v 6.819353 19.427834 6.650859
v 17.385370 29.159100 -0.890752
v 17.716685 29.169991 -0.426576
v 7.118147 19.401131 7.138244
v -2.836622 12.405737 14.243557
v -3.167932 12.405724 13.779381
v -3.167928 30.055038 13.779377
v -2.836618 30.055058 14.243553
v -3.167928 27.848875 13.779381
v -2.836618 27.848892 14.243553
v -3.167928 25.642710 13.779381
v -2.836618 25.642721 14.243553
v -3.167928 23.436546 13.779381
v -2.836618 23.436563 14.243553
v -3.167928 21.230381 13.779381
v -2.836618 21.230400 14.243553
v -3.167928 19.024216 13.779381
v -2.836618 19.024235 14.243553
v -3.167928 16.818050 13.779381
v -2.836618 16.818069 14.243553
v -3.167928 14.611886 13.779381
v -2.836618 14.611899 14.243553
v 7.115240 19.404240 7.140308
v -0.471388 12.405737 12.555346
v -0.805124 12.405724 12.092901
v 6.819346 19.427834 6.650853
vt 0.303475 0.677017
vt 0.301376 0.677947
vt 0.290211 0.662305
vt 0.292041 0.660998
vt 0.319950 0.703971
vt 0.321872 0.702793
vt 0.289408 0.662348
vt 0.259669 0.704014
vt 0.257747 0.702835
vt 0.287578 0.661041
vt 0.255114 0.705082
vt 0.248463 0.695765
vt 0.250287 0.694449
vt 0.256944 0.703776
vt 0.228933 0.664531
vt 0.227003 0.665698
vt 0.222476 0.664009
vt 0.250487 0.622009
vt 0.252417 0.622102
vt 0.224307 0.664009
vt 0.229134 0.594411
vt 0.222476 0.655310
vt 0.222476 0.646610
vt 0.222476 0.637910
vt 0.222476 0.629210
vt 0.222476 0.620510
vt 0.222476 0.611811
vt 0.222476 0.603111
vt 0.222476 0.594411
vt 0.283149 0.594411
vt 0.283149 0.660519
vt 0.253318 0.621997
vt 0.271716 0.594411
vt 0.284980 0.594411
vt 0.284980 0.660476
vt 0.285945 0.594411
vt 0.297110 0.594411
vt 0.315684 0.622102
vt 0.285945 0.660476
vt 0.221550 0.664009
vt 0.219719 0.664009
vt 0.219719 0.655310
vt 0.221550 0.655310
vt 0.191609 0.622102
vt 0.213069 0.594411
vt 0.219719 0.594411
vt 0.219719 0.603111
vt 0.219719 0.611811
vt 0.219719 0.620510
vt 0.219719 0.629210
vt 0.219719 0.637910
vt 0.219719 0.646610
vt 0.221550 0.646610
vt 0.221550 0.603111
vt 0.221550 0.594411
vt 0.221550 0.611810
vt 0.221550 0.620510
vt 0.221550 0.629210
vt 0.221550 0.637910
vn 0.000013 -1.000000 0.000018
vn 0.000013 -1.000000 0.000018
vn 0.000013 -1.000000 0.000018
vn 0.000013 -1.000000 0.000018
vn 0.580956 -0.000000 0.813935
vn 0.580956 -0.000000 0.813935
vn 0.580956 -0.000000 0.813935
vn 0.580956 -0.000000 0.813935
vn 0.813937 -0.000000 -0.580954
vn 0.813937 -0.000000 -0.580954
vn 0.813937 -0.000000 -0.580954
vn 0.813937 -0.000000 -0.580954
vn -0.580956 0.000000 -0.813935
vn -0.580956 0.000000 -0.813935
vn -0.580956 0.000000 -0.813935
vn -0.580956 0.000000 -0.813935
vn -0.494070 0.799990 0.340458
vn -0.494070 0.799990 0.340458
vn -0.494070 0.799990 0.340458
vn -0.494070 0.799990 0.340458
vn -0.593075 -0.750603 0.291304
vn -0.593075 -0.750603 0.291304
vn -0.593075 -0.750603 0.291304
vn -0.593075 -0.750603 0.291304
vn -0.813935 0.000000 0.580956
vn -0.813935 0.000000 0.580956
vn -0.813934 0.000000 0.580957
vn -0.813934 0.000000 0.580957
vn -0.813934 0.000000 0.580958
vn -0.813934 0.000000 0.580958
vn -0.813934 0.000000 0.580958
vn -0.813934 0.000000 0.580958
vn -0.813934 0.000000 0.580958
vn -0.813934 0.000000 0.580958
vn -0.813934 0.000000 0.580957
vn -0.813934 0.000000 0.580957
vn -0.813934 0.000000 0.580958
vn -0.813934 0.000000 0.580958
vn -0.813934 0.000001 0.580957
vn -0.813934 0.000001 0.580957
vn -0.813935 0.000001 0.580956
vn -0.813935 0.000001 0.580956
vn 0.580955 0.000000 0.813936
vn 0.580955 0.000000 0.813935
vn 0.580955 0.000000 0.813936
vn 0.580955 0.000000 0.813936
vn 0.580955 0.000000 0.813936
vn 0.580955 0.000000 0.813936
vn 0.580955 0.000000 0.813936
vn 0.580955 0.000000 0.813936
vn 0.580955 0.000000 0.813936
vn 0.580955 0.000000 0.813936
vn 0.580955 0.000000 0.813936
vn 0.000014 -1.000000 0.000019
vn 0.000014 -1.000000 0.000019
vn 0.000014 -1.000000 0.000019
vn 0.000014 -1.000000 0.000019
vn -0.580955 -0.000000 -0.813935
vn -0.580956 -0.000000 -0.813935
vn -0.580955 -0.000000 -0.813935
vn -0.580955 -0.000000 -0.813935
vn -0.580956 -0.000000 -0.813935
vn -0.580956 -0.000000 -0.813935
vn -0.580956 -0.000000 -0.813935
vn -0.580956 -0.000000 -0.813935
vn -0.580956 -0.000000 -0.813935
vn -0.580956 -0.000000 -0.813935
vn -0.580956 -0.000000 -0.813935
vn 0.491236 -0.799901 -0.344741
vn 0.491236 -0.799901 -0.344741
vn 0.491236 -0.799901 -0.344741
vn 0.491236 -0.799901 -0.344741
vn 0.556887 0.754348 -0.347616
vn 0.556887 0.754348 -0.347616
vn 0.556886 0.754348 -0.347616
vn 0.556887 0.754348 -0.347616
s off
g polySurface7
usemtl phong11SG
f 26/34/52 27/35/53 25/36/54 24/37/55
f 24/63/56 30/64/57 31/65/58 26/66/59
f 24/63/60 25/67/61 29/68/62 30/64/63
f 25/69/64 27/70/65 28/71/66 29/72/67
f 29/40/68 28/41/69 31/42/70 30/43/71
f 28/38/72 27/35/73 26/34/74 31/39/75
s 1
f 35/73/76 34/74/77 36/75/78 37/76/79
f 37/76/79 36/75/78 38/85/80 39/86/81
f 39/86/81 38/85/80 40/84/82 41/92/83
f 41/92/83 40/84/82 42/83/84 43/91/85
f 43/91/85 42/83/84 44/82/86 45/90/87
f 45/90/87 44/82/86 46/81/88 47/89/89
f 47/89/89 46/81/88 48/80/90 49/87/91
f 49/87/91 48/80/90 33/79/92 32/88/93
s off
f 51/54/94 50/51/95 35/50/96 37/55/97 39/56/98 41/57/99 43/58/100 45/59/101 47/60/102 49/61/103 32/62/104
f 33/44/105 52/45/106 51/46/107 32/47/108
f 34/74/109 53/77/110 52/78/111 33/79/112 48/80/113 46/81/114 44/82/115 42/83/116 40/84/117 38/85/118 36/75/119
f 50/48/120 51/46/121 52/45/122 53/49/123
f 35/50/124 50/51/125 53/52/126 34/53/127
g default
v -2.840787 43.292048 14.243563
v 17.712510 43.292048 -0.426574
v -3.172099 43.292022 13.779385
v 17.381191 43.292022 -0.890753
v -3.172099 41.085866 13.779383
v -2.840787 41.085884 14.243563
v -2.219428 43.466612 13.800063
v -2.550742 43.466593 13.335886
v -0.265397 44.427796 12.405345
v -0.596705 44.427773 11.941168
v 0.341059 44.879573 11.972485
v 0.009747 44.879547 11.508307
v -0.552837 49.907478 12.610518
v -0.884150 49.907456 12.146341
v 2.401680 50.269722 10.501694
v 2.070369 50.269707 10.037518
v 2.246560 51.461351 10.612411
v 1.915251 51.461336 10.148236
v 5.548214 64.381691 8.255823
v 5.216900 64.381683 7.791647
v 9.314352 64.382353 5.567700
v 8.983042 64.382339 5.103521
v 12.542518 51.767761 3.263561
v 12.211207 51.767746 2.799383
v 12.161704 50.499298 3.535370
v 11.830391 50.499283 3.071192
v 15.403573 50.090982 1.221450
v 15.072261 50.090968 0.757272
v 14.209285 44.942147 2.073887
v 13.877977 44.942125 1.609711
v 15.617062 44.126565 1.069073
v 15.285750 44.126551 0.604889
v 17.117679 43.513063 -0.002015
v 16.786376 43.513045 -0.466194
v 17.712510 38.837003 -0.426574
v 17.381191 38.833903 -0.890753
v -3.172099 38.879702 13.779383
v -2.840787 38.879717 14.243563
vt 0.322499 0.535457
vt 0.257220 0.535688
vt 0.257188 0.526266
vt 0.322466 0.526041
vt 0.257152 0.515783
vt 0.322430 0.515558
vt 0.322446 0.520221
vt 0.257168 0.520446
vt 0.322462 0.524883
vt 0.257184 0.525108
vt 0.322389 0.503789
vt 0.257112 0.504014
vt 0.257075 0.493388
vt 0.322352 0.493163
vt 0.322314 0.482036
vt 0.257036 0.482261
vt 0.257028 0.479743
vt 0.322305 0.479517
vt 0.256933 0.452436
vt 0.322211 0.452211
vt 0.256786 0.409742
vt 0.322064 0.409517
vt 0.322156 0.436178
vt 0.256878 0.436403
vt 0.322165 0.438859
vt 0.256887 0.439084
vt 0.256708 0.387002
vt 0.321986 0.386777
vt 0.322023 0.397659
vt 0.256746 0.397884
vt 0.322426 0.514336
vt 0.257148 0.514561
vt 0.257141 0.512759
vt 0.322419 0.512534
vt 0.257123 0.507093
vt 0.322400 0.506867
vt 0.257116 0.505334
vt 0.322394 0.505109
vt 0.322348 0.491924
vt 0.257070 0.492149
vt 0.257041 0.483580
vt 0.322319 0.483355
vt 0.322207 0.451054
vt 0.256929 0.451279
vt 0.256892 0.440357
vt 0.322170 0.440132
vt 0.322060 0.408206
vt 0.256782 0.408432
vt 0.256750 0.399030
vt 0.322027 0.398805
vt 0.321981 0.385464
vt 0.256704 0.385689
vt 0.256689 0.381607
vt 0.321968 0.381382
vt 0.256675 0.377255
vt 0.321952 0.377030
vt 0.256668 0.375530
vt 0.321947 0.375305
vt 0.322799 0.426626
vt 0.322593 0.367021
vt 0.387872 0.366795
vt 0.388077 0.426401
vt 0.322802 0.427663
vt 0.382407 0.427554
vt 0.382423 0.432217
vt 0.382439 0.436880
vt 0.380638 0.437255
vt 0.374979 0.439306
vt 0.373224 0.440267
vt 0.375852 0.450884
vt 0.367287 0.451679
vt 0.367745 0.454197
vt 0.358265 0.481537
vt 0.347343 0.481575
vt 0.337889 0.454947
vt 0.338984 0.452262
vt 0.329580 0.451432
vt 0.333005 0.440538
vt 0.328917 0.438828
vt 0.324561 0.437547
vt 0.322834 0.437085
vt 0.443058 0.534957
vt 0.383454 0.535253
vt 0.383421 0.525837
vt 0.385145 0.525364
vt 0.389492 0.524053
vt 0.393569 0.522315
vt 0.390068 0.511445
vt 0.399466 0.510550
vt 0.398353 0.507873
vt 0.407622 0.481180
vt 0.418544 0.481143
vt 0.428213 0.508417
vt 0.427772 0.510937
vt 0.436343 0.511673
vt 0.433787 0.522309
vt 0.435549 0.523257
vt 0.441223 0.525269
vt 0.443026 0.525632
vt 0.443042 0.530295
vn 0.813930 0.000000 -0.580962
vn 0.813930 0.000000 -0.580962
vn 0.813930 0.000000 -0.580962
vn 0.813930 0.000000 -0.580962
vn -0.813936 -0.000001 0.580954
vn -0.813936 -0.000001 0.580954
vn -0.813937 -0.000000 0.580954
vn -0.813937 -0.000000 0.580954
vn -0.813937 0.000000 0.580953
vn -0.813937 0.000000 0.580953
vn -0.181462 0.974837 0.129475
vn -0.181462 0.974837 0.129475
vn -0.275000 0.941203 0.196243
vn -0.275001 0.941203 0.196243
vn -0.333509 0.912209 0.238005
vn -0.333508 0.912210 0.238003
vn -0.812247 -0.064336 0.579755
vn -0.812249 -0.064305 0.579756
vn -0.736727 0.425124 0.525835
vn -0.736726 0.425127 0.525834
vn -0.335117 0.911317 0.239159
vn -0.335132 0.911309 0.239169
vn -0.785016 0.264205 0.560308
vn -0.785016 0.264204 0.560309
vn -0.675560 0.557787 0.482176
vn -0.675558 0.557790 0.482174
vn 0.672667 0.563016 -0.480138
vn 0.672670 0.563011 -0.480140
vn 0.789261 0.244344 -0.563350
vn 0.789262 0.244339 -0.563351
vn 0.350431 0.902563 -0.250155
vn 0.350408 0.902577 -0.250139
vn 0.741492 0.412403 -0.529258
vn 0.741487 0.412416 -0.529254
vn 0.813150 0.043942 -0.580393
vn 0.813149 0.043958 -0.580393
vn 0.302234 0.928496 -0.215756
vn 0.302231 0.928497 -0.215755
vn 0.250967 0.951270 -0.179166
vn 0.250967 0.951270 -0.179166
vn 0.235602 0.957182 -0.168208
vn 0.235602 0.957182 -0.168208
vn -0.580955 0.000000 -0.813935
vn -0.580955 0.000000 -0.813935
vn -0.580955 0.000000 -0.813935
vn -0.580955 0.000000 -0.813935
vn -0.580955 0.000000 -0.813935
vn -0.580955 0.000000 -0.813935
vn -0.580955 0.000000 -0.813935
vn -0.580955 0.000000 -0.813935
vn -0.580955 0.000000 -0.813935
vn -0.580955 0.000000 -0.813935
vn -0.580955 0.000000 -0.813935
vn -0.580955 0.000000 -0.813935
vn -0.580955 0.000000 -0.813935
vn -0.580955 0.000000 -0.813935
vn -0.580955 0.000000 -0.813935
vn -0.580955 0.000000 -0.813935
vn -0.580955 0.000000 -0.813935
vn -0.580955 0.000000 -0.813935
vn -0.580955 0.000000 -0.813935
vn 0.580955 0.000000 0.813935
vn 0.580955 0.000000 0.813935
vn 0.580955 0.000000 0.813935
vn 0.580955 0.000000 0.813935
vn 0.580955 0.000000 0.813935
vn 0.580955 0.000000 0.813935
vn 0.580955 0.000000 0.813935
vn 0.580955 0.000000 0.813935
vn 0.580955 0.000000 0.813935
vn 0.580955 0.000000 0.813935
vn 0.580955 0.000000 0.813935
vn 0.580955 0.000000 0.813935
vn 0.580955 0.000000 0.813935
vn 0.580955 0.000000 0.813935
vn 0.580955 0.000000 0.813935
vn 0.580955 0.000000 0.813935
vn 0.580955 0.000000 0.813935
vn 0.580955 0.000000 0.813935
vn 0.580955 0.000000 0.813935
vn 0.000160 -0.999995 0.003241
vn 0.000160 -0.999995 0.003241
vn 0.000160 -0.999995 0.003241
vn 0.000160 -0.999995 0.003241
s off
g polySurface8 pasted__pCube12 group81 polySurface10
usemtl phong14SG
f 88/93/128 89/94/129 57/95/130 55/96/131
s 1
f 54/97/132 56/98/133 58/99/134 59/100/135
f 59/100/135 58/99/134 90/101/136 91/102/137
s 2
f 56/123/138 54/124/139 60/125/140 61/126/141
f 61/126/141 60/125/140 62/127/142 63/128/143
f 63/128/143 62/127/142 64/129/144 65/130/145
f 65/103/145 64/104/144 66/105/146 67/106/147
f 67/131/147 66/132/146 68/133/148 69/134/149
f 69/107/149 68/108/148 70/109/150 71/110/151
f 71/110/151 70/109/150 72/111/152 73/112/153
f 73/135/153 72/136/152 74/137/154 75/138/155
f 75/113/155 74/114/154 76/115/156 77/116/157
f 77/116/157 76/115/156 78/117/158 79/118/159
f 79/139/159 78/140/158 80/141/160 81/142/161
f 81/119/161 80/120/160 82/121/162 83/122/163
f 83/143/163 82/144/162 84/145/164 85/146/165
f 85/146/165 84/145/164 86/147/166 87/148/167
f 87/148/167 86/147/166 55/149/168 57/150/169
s off
f 89/155/170 90/156/171 58/157/172 56/158/173 61/159/174 63/160/175 65/161/176 67/162/177 69/163/178 71/164/179 73/165/180 75/166/181 77/167/182 79/168/183 81/169/184 83/170/185 85/171/186 87/172/187 57/173/188
f 91/174/189 88/175/190 55/176/191 86/177/192 84/178/193 82/179/194 80/180/195 78/181/196 76/182/197 74/183/198 72/184/199 70/185/200 68/186/201 66/187/202 64/188/203 62/189/204 60/190/205 54/191/206 59/192/207
f 90/151/208 89/152/209 88/153/210 91/154/211
